<?xml version="1.0" encoding="UTF-8" standalone="no"?>
<svg
   xmlns:dc="http://purl.org/dc/elements/1.1/"
   xmlns:cc="http://creativecommons.org/ns#"
   xmlns:rdf="http://www.w3.org/1999/02/22-rdf-syntax-ns#"
   xmlns:svg="http://www.w3.org/2000/svg"
   xmlns="http://www.w3.org/2000/svg"
   xmlns:sodipodi="http://sodipodi.sourceforge.net/DTD/sodipodi-0.dtd"
   xmlns:inkscape="http://www.inkscape.org/namespaces/inkscape"
   inkscape:version="1.0 (4035a4fb49, 2020-05-01)"
   sodipodi:docname="DrillPrintout.svg"
   id="svg66"
   version="1.1"
   viewBox="-4 -34 296.99999 210"
   height="210mm"
   width="297mm">
  <metadata
     id="metadata72">
    <rdf:RDF>
      <cc:Work
         rdf:about="">
        <dc:format>image/svg+xml</dc:format>
        <dc:type
           rdf:resource="http://purl.org/dc/dcmitype/StillImage" />
        <dc:title>OpenSCAD Model</dc:title>
      </cc:Work>
    </rdf:RDF>
  </metadata>
  <defs
     id="defs70" />
  <sodipodi:namedview
     scale-x="1"
     inkscape:document-units="mm"
     units="mm"
     showguides="false"
     inkscape:current-layer="svg66"
     inkscape:window-maximized="1"
     inkscape:window-y="-8"
     inkscape:window-x="1912"
     inkscape:cy="19"
     inkscape:cx="34"
     inkscape:zoom="21.763158"
     showgrid="false"
     id="namedview68"
     inkscape:window-height="1017"
     inkscape:window-width="1920"
     inkscape:pageshadow="2"
     inkscape:pageopacity="0"
     guidetolerance="10"
     gridtolerance="10"
     objecttolerance="10"
     borderopacity="1"
     bordercolor="#666666"
     pagecolor="#ffffff" />
  <title
     id="title62">OpenSCAD Model</title>
  <path
     id="path64"
     stroke-width="0.5"
     fill="#d3d3d3"
     stroke="#000000"
     d="m 0.655823,-26.562 0.425737,-0.1093 0.40866,-0.1618 0.38516,-0.2117 0.35559,-0.2584 0.32041,-0.3009 0.28018,-0.3386 0.2355,-0.3712 0.18715,-0.3977 0.13582,-0.418 L 3.4724,-29.5613 3.5,-30 3.4724,-30.4387 3.39003,-30.8704 3.25421,-31.2884 3.06706,-31.6861 2.83156,-32.0572 2.55138,-32.3959 2.23097,-32.6968 1.87538,-32.9551 1.49022,-33.1669 1.08156,-33.3287 0.655823,-33.438 0.219757,-33.4931 h -0.439514 l -0.436066,0.0551 -0.425737,0.1093 -0.40866,0.1618 -0.38516,0.2118 -0.35559,0.2583 -0.32041,0.3009 -0.28018,0.3387 -0.2355,0.3711 -0.18715,0.3977 -0.13582,0.418 -0.08237,0.4317 L -3.5,-30 l 0.0276,0.4387 0.08237,0.4317 0.13582,0.418 0.18715,0.3977 0.2355,0.3712 0.28018,0.3386 0.32041,0.3009 0.35559,0.2584 0.38516,0.2117 0.40866,0.1618 0.425737,0.1093 0.436066,0.0551 h 0.439514 z m 14.999977,0 0.4258,-0.1093 0.4086,-0.1618 0.3852,-0.2117 0.3556,-0.2584 0.3204,-0.3009 0.2802,-0.3386 0.2355,-0.3712 0.1871,-0.3977 0.1358,-0.418 0.0824,-0.4317 L 18.5,-30 l -0.0276,-0.4387 -0.0824,-0.4317 -0.1358,-0.418 -0.1871,-0.3977 -0.2355,-0.3711 -0.2802,-0.3387 -0.3204,-0.3009 -0.3556,-0.2583 -0.3852,-0.2118 -0.4086,-0.1618 -0.4258,-0.1093 -0.436,-0.0551 h -0.4396 l -0.436,0.0551 -0.4258,0.1093 -0.4086,0.1618 -0.3852,0.2118 -0.3556,0.2583 -0.3204,0.3009 -0.2802,0.3387 -0.2355,0.3711 -0.1871,0.3977 -0.1358,0.418 -0.0824,0.4317 L 11.5,-30 l 0.0276,0.4387 0.0824,0.4317 0.1358,0.418 0.1871,0.3977 0.2355,0.3712 0.2802,0.3386 0.3204,0.3009 0.3556,0.2584 0.3852,0.2117 0.4086,0.1618 0.4258,0.1093 0.436,0.0551 h 0.4396 z m 15,0 0.4258,-0.1093 0.4086,-0.1618 0.3852,-0.2117 0.3556,-0.2584 0.3204,-0.3009 0.2802,-0.3386 0.2355,-0.3712 0.1871,-0.3977 0.1358,-0.418 0.0824,-0.4317 L 33.5,-30 l -0.0276,-0.4387 -0.0824,-0.4317 -0.1358,-0.418 -0.1871,-0.3977 -0.2355,-0.3711 -0.2802,-0.3387 -0.3204,-0.3009 -0.3556,-0.2583 -0.3852,-0.2118 -0.4086,-0.1618 -0.4258,-0.1093 -0.436,-0.0551 h -0.4396 l -0.436,0.0551 -0.4258,0.1093 -0.4086,0.1618 -0.3852,0.2118 -0.3556,0.2583 -0.3204,0.3009 -0.2802,0.3387 -0.2355,0.3711 -0.1871,0.3977 -0.1358,0.418 -0.0824,0.4317 L 26.5,-30 l 0.0276,0.4387 0.0824,0.4317 0.1358,0.418 0.1871,0.3977 0.2355,0.3712 0.2802,0.3386 0.3204,0.3009 0.3556,0.2584 0.3852,0.2117 0.4086,0.1618 0.4258,0.1093 0.436,0.0551 h 0.4396 z m 15,0 0.4258,-0.1093 0.4086,-0.1618 0.3852,-0.2117 0.3556,-0.2584 0.3204,-0.3009 0.2802,-0.3386 0.2355,-0.3712 0.1871,-0.3977 0.1358,-0.418 0.0824,-0.4317 L 48.5,-30 l -0.0276,-0.4387 -0.0824,-0.4317 -0.1358,-0.418 -0.1871,-0.3977 -0.2355,-0.3711 -0.2802,-0.3387 -0.3204,-0.3009 -0.3556,-0.2583 -0.3852,-0.2118 -0.4086,-0.1618 -0.4258,-0.1093 -0.436,-0.0551 h -0.4396 l -0.436,0.0551 -0.4258,0.1093 -0.4086,0.1618 -0.3852,0.2118 -0.3556,0.2583 -0.3204,0.3009 -0.2802,0.3387 -0.2355,0.3711 -0.1871,0.3977 -0.1358,0.418 -0.0824,0.4317 L 41.5,-30 l 0.0276,0.4387 0.0824,0.4317 0.1358,0.418 0.1871,0.3977 0.2355,0.3712 0.2802,0.3386 0.3204,0.3009 0.3556,0.2584 0.3852,0.2117 0.4086,0.1618 0.4258,0.1093 0.436,0.0551 h 0.4396 z m 15,0 0.4258,-0.1093 0.4086,-0.1618 0.3852,-0.2117 0.3556,-0.2584 0.3204,-0.3009 0.2802,-0.3386 0.2355,-0.3712 0.1871,-0.3977 0.1358,-0.418 0.0824,-0.4317 L 63.5,-30 l -0.0276,-0.4387 -0.0824,-0.4317 -0.1358,-0.418 -0.1871,-0.3977 -0.2355,-0.3711 -0.2802,-0.3387 -0.3204,-0.3009 -0.3556,-0.2583 -0.3852,-0.2118 -0.4086,-0.1618 -0.4258,-0.1093 -0.436,-0.0551 h -0.4396 l -0.436,0.0551 -0.4258,0.1093 -0.4086,0.1618 -0.3852,0.2118 -0.3556,0.2583 -0.3204,0.3009 -0.2802,0.3387 -0.2355,0.3711 -0.1871,0.3977 -0.1358,0.418 -0.0824,0.4317 L 56.5,-30 l 0.0276,0.4387 0.0824,0.4317 0.1358,0.418 0.1871,0.3977 0.2355,0.3712 0.2802,0.3386 0.3204,0.3009 0.3556,0.2584 0.3852,0.2117 0.4086,0.1618 0.4258,0.1093 0.436,0.0551 h 0.4396 z m -59.999977,15 0.425737,-0.1093 0.40866,-0.1618 0.38516,-0.2117 0.35559,-0.2584 0.32041,-0.3009 0.28018,-0.3386 0.2355,-0.3712 0.18715,-0.3977 0.13582,-0.418 L 3.4724,-14.5613 3.5,-15 3.4724,-15.4387 3.39003,-15.8704 3.25421,-16.2884 3.06706,-16.6861 2.83156,-17.0572 2.55138,-17.3959 2.23097,-17.6968 1.87538,-17.9551 1.49022,-18.1669 1.08156,-18.3287 0.655823,-18.438 0.219757,-18.4931 h -0.439514 l -0.436066,0.0551 -0.425737,0.1093 -0.40866,0.1618 -0.38516,0.2118 -0.35559,0.2583 -0.32041,0.3009 -0.28018,0.3387 -0.2355,0.3711 -0.18715,0.3977 -0.13582,0.418 -0.08237,0.4317 L -3.5,-15 l 0.0276,0.4387 0.08237,0.4317 0.13582,0.418 0.18715,0.3977 0.2355,0.3712 0.28018,0.3386 0.32041,0.3009 0.35559,0.2584 0.38516,0.2117 0.40866,0.1618 0.425737,0.1093 0.436066,0.0551 h 0.439514 z m 14.999977,0 0.4258,-0.1093 0.4086,-0.1618 0.3852,-0.2117 0.3556,-0.2584 0.3204,-0.3009 0.2802,-0.3386 0.2355,-0.3712 0.1871,-0.3977 0.1358,-0.418 0.0824,-0.4317 L 18.5,-15 l -0.0276,-0.4387 -0.0824,-0.4317 -0.1358,-0.418 -0.1871,-0.3977 -0.2355,-0.3711 -0.2802,-0.3387 -0.3204,-0.3009 -0.3556,-0.2583 -0.3852,-0.2118 -0.4086,-0.1618 -0.4258,-0.1093 -0.436,-0.0551 h -0.4396 l -0.436,0.0551 -0.4258,0.1093 -0.4086,0.1618 -0.3852,0.2118 -0.3556,0.2583 -0.3204,0.3009 -0.2802,0.3387 -0.2355,0.3711 -0.1871,0.3977 -0.1358,0.418 -0.0824,0.4317 L 11.5,-15 l 0.0276,0.4387 0.0824,0.4317 0.1358,0.418 0.1871,0.3977 0.2355,0.3712 0.2802,0.3386 0.3204,0.3009 0.3556,0.2584 0.3852,0.2117 0.4086,0.1618 0.4258,0.1093 0.436,0.0551 h 0.4396 z m 15,0 0.4258,-0.1093 0.4086,-0.1618 0.3852,-0.2117 0.3556,-0.2584 0.3204,-0.3009 0.2802,-0.3386 0.2355,-0.3712 0.1871,-0.3977 0.1358,-0.418 0.0824,-0.4317 L 33.5,-15 l -0.0276,-0.4387 -0.0824,-0.4317 -0.1358,-0.418 -0.1871,-0.3977 -0.2355,-0.3711 -0.2802,-0.3387 -0.3204,-0.3009 -0.3556,-0.2583 -0.3852,-0.2118 -0.4086,-0.1618 -0.4258,-0.1093 -0.436,-0.0551 h -0.4396 l -0.436,0.0551 -0.4258,0.1093 -0.4086,0.1618 -0.3852,0.2118 -0.3556,0.2583 -0.3204,0.3009 -0.2802,0.3387 -0.2355,0.3711 -0.1871,0.3977 -0.1358,0.418 -0.0824,0.4317 L 26.5,-15 l 0.0276,0.4387 0.0824,0.4317 0.1358,0.418 0.1871,0.3977 0.2355,0.3712 0.2802,0.3386 0.3204,0.3009 0.3556,0.2584 0.3852,0.2117 0.4086,0.1618 0.4258,0.1093 0.436,0.0551 h 0.4396 z m 15,0 0.4258,-0.1093 0.4086,-0.1618 0.3852,-0.2117 0.3556,-0.2584 0.3204,-0.3009 0.2802,-0.3386 0.2355,-0.3712 0.1871,-0.3977 0.1358,-0.418 0.0824,-0.4317 L 48.5,-15 l -0.0276,-0.4387 -0.0824,-0.4317 -0.1358,-0.418 -0.1871,-0.3977 -0.2355,-0.3711 -0.2802,-0.3387 -0.3204,-0.3009 -0.3556,-0.2583 -0.3852,-0.2118 -0.4086,-0.1618 -0.4258,-0.1093 -0.436,-0.0551 h -0.4396 l -0.436,0.0551 -0.4258,0.1093 -0.4086,0.1618 -0.3852,0.2118 -0.3556,0.2583 -0.3204,0.3009 -0.2802,0.3387 -0.2355,0.3711 -0.1871,0.3977 -0.1358,0.418 -0.0824,0.4317 L 41.5,-15 l 0.0276,0.4387 0.0824,0.4317 0.1358,0.418 0.1871,0.3977 0.2355,0.3712 0.2802,0.3386 0.3204,0.3009 0.3556,0.2584 0.3852,0.2117 0.4086,0.1618 0.4258,0.1093 0.436,0.0551 h 0.4396 z m 15,0 0.4258,-0.1093 0.4086,-0.1618 0.3852,-0.2117 0.3556,-0.2584 0.3204,-0.3009 0.2802,-0.3386 0.2355,-0.3712 0.1871,-0.3977 0.1358,-0.418 0.0824,-0.4317 L 63.5,-15 l -0.0276,-0.4387 -0.0824,-0.4317 -0.1358,-0.418 -0.1871,-0.3977 -0.2355,-0.3711 -0.2802,-0.3387 -0.3204,-0.3009 -0.3556,-0.2583 -0.3852,-0.2118 -0.4086,-0.1618 -0.4258,-0.1093 -0.436,-0.0551 h -0.4396 l -0.436,0.0551 -0.4258,0.1093 -0.4086,0.1618 -0.3852,0.2118 -0.3556,0.2583 -0.3204,0.3009 -0.2802,0.3387 -0.2355,0.3711 -0.1871,0.3977 -0.1358,0.418 -0.0824,0.4317 L 56.5,-15 l 0.0276,0.4387 0.0824,0.4317 0.1358,0.418 0.1871,0.3977 0.2355,0.3712 0.2802,0.3386 0.3204,0.3009 0.3556,0.2584 0.3852,0.2117 0.4086,0.1618 0.4258,0.1093 0.436,0.0551 h 0.4396 z M 0.655823,3.438 1.08156,3.32869 1.49022,3.16689 1.87538,2.95514 2.23097,2.69679 2.55138,2.3959 2.83156,2.05724 3.06706,1.68613 3.25421,1.28842 3.39003,0.870407 3.4724,0.43866 3.5,0 3.4724,-0.43866 3.39003,-0.870407 3.25421,-1.28842 3.06706,-1.68613 2.83156,-2.05724 2.55138,-2.3959 2.23097,-2.69679 1.87538,-2.95514 1.49022,-3.16689 1.08156,-3.32869 0.655823,-3.438 0.219757,-3.49309 h -0.439514 l -0.436066,0.05509 -0.425737,0.10931 -0.40866,0.1618 -0.38516,0.21175 -0.35559,0.25835 -0.32041,0.30089 -0.28018,0.33866 -0.2355,0.37111 -0.18715,0.39771 -0.13582,0.418013 L -3.4724,-0.43866 -3.5,0 l 0.0276,0.43866 0.08237,0.431747 0.13582,0.418013 0.18715,0.39771 0.2355,0.37111 0.28018,0.33866 0.32041,0.30089 0.35559,0.25835 0.38516,0.21175 0.40866,0.1618 0.425737,0.10931 0.436066,0.05509 h 0.439514 z m 14.999977,0 0.4258,-0.10931 0.4086,-0.1618 L 16.8754,2.95514 17.231,2.69679 17.5514,2.3959 17.8316,2.05724 18.0671,1.68613 18.2542,1.28842 18.39,0.870407 18.4724,0.43866 18.5,0 18.4724,-0.43866 18.39,-0.870407 18.2542,-1.28842 18.0671,-1.68613 17.8316,-2.05724 17.5514,-2.3959 17.231,-2.69679 16.8754,-2.95514 16.4902,-3.16689 16.0816,-3.32869 15.6558,-3.438 15.2198,-3.49309 h -0.4396 l -0.436,0.05509 -0.4258,0.10931 -0.4086,0.1618 -0.3852,0.21175 -0.3556,0.25835 -0.3204,0.30089 -0.2802,0.33866 -0.2355,0.37111 -0.1871,0.39771 L 11.61,-0.870407 11.5276,-0.43866 11.5,0 l 0.0276,0.43866 0.0824,0.431747 0.1358,0.418013 0.1871,0.39771 0.2355,0.37111 0.2802,0.33866 0.3204,0.30089 0.3556,0.25835 0.3852,0.21175 0.4086,0.1618 0.4258,0.10931 0.436,0.05509 h 0.4396 z m 15,0 0.4258,-0.10931 0.4086,-0.1618 L 31.8754,2.95514 32.231,2.69679 32.5514,2.3959 32.8316,2.05724 33.0671,1.68613 33.2542,1.28842 33.39,0.870407 33.4724,0.43866 33.5,0 33.4724,-0.43866 33.39,-0.870407 33.2542,-1.28842 33.0671,-1.68613 32.8316,-2.05724 32.5514,-2.3959 32.231,-2.69679 31.8754,-2.95514 31.4902,-3.16689 31.0816,-3.32869 30.6558,-3.438 30.2198,-3.49309 h -0.4396 l -0.436,0.05509 -0.4258,0.10931 -0.4086,0.1618 -0.3852,0.21175 -0.3556,0.25835 -0.3204,0.30089 -0.2802,0.33866 -0.2355,0.37111 -0.1871,0.39771 L 26.61,-0.870407 26.5276,-0.43866 26.5,0 l 0.0276,0.43866 0.0824,0.431747 0.1358,0.418013 0.1871,0.39771 0.2355,0.37111 0.2802,0.33866 0.3204,0.30089 0.3556,0.25835 0.3852,0.21175 0.4086,0.1618 0.4258,0.10931 0.436,0.05509 h 0.4396 z m 15,0 0.4258,-0.10931 0.4086,-0.1618 L 46.8754,2.95514 47.231,2.69679 47.5514,2.3959 47.8316,2.05724 48.0671,1.68613 48.2542,1.28842 48.39,0.870407 48.4724,0.43866 48.5,0 48.4724,-0.43866 48.39,-0.870407 48.2542,-1.28842 48.0671,-1.68613 47.8316,-2.05724 47.5514,-2.3959 47.231,-2.69679 46.8754,-2.95514 46.4902,-3.16689 46.0816,-3.32869 45.6558,-3.438 45.2198,-3.49309 h -0.4396 l -0.436,0.05509 -0.4258,0.10931 -0.4086,0.1618 -0.3852,0.21175 -0.3556,0.25835 -0.3204,0.30089 -0.2802,0.33866 -0.2355,0.37111 -0.1871,0.39771 L 41.61,-0.870407 41.5276,-0.43866 41.5,0 l 0.0276,0.43866 0.0824,0.431747 0.1358,0.418013 0.1871,0.39771 0.2355,0.37111 0.2802,0.33866 0.3204,0.30089 0.3556,0.25835 0.3852,0.21175 0.4086,0.1618 0.4258,0.10931 0.436,0.05509 h 0.4396 z m 15,0 0.4258,-0.10931 0.4086,-0.1618 L 61.8754,2.95514 62.231,2.69679 62.5514,2.3959 62.8316,2.05724 63.0671,1.68613 63.2542,1.28842 63.39,0.870407 63.4724,0.43866 63.5,0 63.4724,-0.43866 63.39,-0.870407 63.2542,-1.28842 63.0671,-1.68613 62.8316,-2.05724 62.5514,-2.3959 62.231,-2.69679 61.8754,-2.95514 61.4902,-3.16689 61.0816,-3.32869 60.6558,-3.438 60.2198,-3.49309 h -0.4396 l -0.436,0.05509 -0.4258,0.10931 -0.4086,0.1618 -0.3852,0.21175 -0.3556,0.25835 -0.3204,0.30089 -0.2802,0.33866 -0.2355,0.37111 -0.1871,0.39771 L 56.61,-0.870407 56.5276,-0.43866 56.5,0 l 0.0276,0.43866 0.0824,0.431747 0.1358,0.418013 0.1871,0.39771 0.2355,0.37111 0.2802,0.33866 0.3204,0.30089 0.3556,0.25835 0.3852,0.21175 0.4086,0.1618 0.4258,0.10931 0.436,0.05509 h 0.4396 z" />
</svg>
